<svg xmlns="http://www.w3.org/2000/svg" viewBox="0 0 512 512">
  <rect width="512" height="512" rx="72" fill="#c0392b"/>
  <path fill="#faf8f1" fill-rule="evenodd" d="M108 174c0-18.8 15.2-34 34-34h228c18.8 0 34 15.2 34 34v44.8c-20.8 5.2-36 24-36 46.4s15.2 41.2 36 46.4V356c0 18.8-15.2 34-34 34H142c-18.8 0-34-15.2-34-34v-44.4c20.8-5.2 36-24 36-46.4s-15.2-41.2-36-46.4V174Zm262 4h-34v34h34v-34Zm0 68h-34v40h34v-40Zm0 74h-34v34h34v-34Z"/>
  <circle cx="188" cy="265" r="24" fill="#c0392b"/>
  <circle cx="256" cy="265" r="24" fill="#c0392b"/>
</svg>
